<svg xmlns="http://www.w3.org/2000/svg" viewBox="0 0 421.54 425.38">
  <defs>
    <style>
      .a8f40512-b970-4a60-bf1a-4539a4e35b87 {
        isolation: isolate;
      }

      .b4531261-d1cd-4760-bc5a-275bc093d2db {
        fill: #fff;
      }

      .ae466cca-67c9-4ced-8f23-c14e05bcc033 {
        fill: #d22027;
      }

      .f580693c-fb9c-4c12-9be5-eedcfd5649e2 {
        fill: #929497;
        mix-blend-mode: multiply;
      }

      .aaee319f-cf99-42f7-8b78-a2b91d0ec96e {
        fill: #083860;
      }

      .ede02233-2fd1-4b4a-9999-c93ee6b1dbd3 {
        fill: #0e4c88;
      }
    </style>
  </defs>
  <g class="a8f40512-b970-4a60-bf1a-4539a4e35b87">
    <g id="a8474405-5bf6-41d4-9960-47c71ed1382d" data-name="Layer 2">
      <g id="e4b06839-4f9a-40a9-a3fd-b439220dc7ab" data-name="Layer 1">
        <g>
          <g>
            <g>
              <polygon class="b4531261-d1cd-4760-bc5a-275bc093d2db" points="195.02 258.4 173.69 258.4 173.69 410.52 195.02 419.91 195.02 258.4 195.02 258.4"/>
              <polygon class="b4531261-d1cd-4760-bc5a-275bc093d2db" points="258.36 258.4 258.36 402.32 279.68 392.66 279.68 258.4 258.36 258.4"/>
              <polygon class="b4531261-d1cd-4760-bc5a-275bc093d2db" points="216.03 258.4 216.03 421.49 237.35 411.83 237.35 258.4 216.03 258.4"/>
              <polygon class="b4531261-d1cd-4760-bc5a-275bc093d2db" points="131.36 258.4 131.36 391.87 152.68 401.26 152.68 258.4 131.36 258.4"/>
              <polygon class="b4531261-d1cd-4760-bc5a-275bc093d2db" points="110.35 258.4 89.03 258.4 89.03 373.23 110.35 382.62 110.35 258.4 110.35 258.4"/>
              <polygon class="b4531261-d1cd-4760-bc5a-275bc093d2db" points="322.02 258.4 300.69 258.4 300.69 258.4 300.69 383.15 322.02 373.49 322.02 258.4 322.02 258.4"/>
              <polygon class="ae466cca-67c9-4ced-8f23-c14e05bcc033" points="89.03 258.4 68.02 258.4 68.02 363.98 89.03 373.23 89.03 258.4"/>
              <polygon class="ae466cca-67c9-4ced-8f23-c14e05bcc033" points="110.35 258.4 110.35 382.62 131.36 391.87 131.36 258.4 110.35 258.4"/>
              <polygon class="ae466cca-67c9-4ced-8f23-c14e05bcc033" points="152.68 258.4 152.68 401.26 173.69 410.52 173.69 258.4 152.68 258.4"/>
              <polygon class="ae466cca-67c9-4ced-8f23-c14e05bcc033" points="216.03 258.4 195.02 258.4 195.02 419.91 207.44 425.38 216.03 421.49 216.03 258.4 216.03 258.4"/>
              <polygon class="ae466cca-67c9-4ced-8f23-c14e05bcc033" points="258.36 258.4 237.35 258.4 237.35 411.83 258.36 402.32 258.36 258.4 258.36 258.4"/>
              <polygon class="ae466cca-67c9-4ced-8f23-c14e05bcc033" points="279.68 258.4 279.68 258.4 279.68 392.66 300.69 383.15 300.69 258.4 279.68 258.4"/>
              <polygon class="ae466cca-67c9-4ced-8f23-c14e05bcc033" points="322.02 258.4 322.02 373.49 343.03 363.98 343.03 258.4 335.08 258.4 322.02 258.4"/>
            </g>
            <polygon class="f580693c-fb9c-4c12-9be5-eedcfd5649e2" points="343.03 250.25 343.03 295.86 335.03 299.48 306.44 312.43 277.42 325.57 248.84 338.51 219.82 351.66 208.14 356.95 191.23 349.51 162.21 336.73 133.62 324.13 104.61 311.35 76.01 298.77 68.02 295.25 68.02 250.25 343.03 250.25"/>
          </g>
          <rect class="f580693c-fb9c-4c12-9be5-eedcfd5649e2" x="53.51" y="28.71" width="304.02" height="11.2"/>
          <rect class="aaee319f-cf99-42f7-8b78-a2b91d0ec96e" x="26.13" y="7.51" width="354.87" height="21.21"/>
          <rect class="aaee319f-cf99-42f7-8b78-a2b91d0ec96e" x="22" width="18.54" height="38.02"/>
          <path class="ede02233-2fd1-4b4a-9999-c93ee6b1dbd3" d="M22,6.29H12.41A12.41,12.41,0,0,0,0,18.7H0A12.41,12.41,0,0,0,12.41,31.11H22Z"/>
          <rect class="aaee319f-cf99-42f7-8b78-a2b91d0ec96e" x="381" width="18.54" height="38.02" transform="translate(780.54 38.02) rotate(180)"/>
          <rect class="f580693c-fb9c-4c12-9be5-eedcfd5649e2" x="375.27" y="7.51" width="5.73" height="21.21"/>
          <rect class="f580693c-fb9c-4c12-9be5-eedcfd5649e2" x="40.55" y="7.51" width="5.73" height="21.21"/>
          <path class="ede02233-2fd1-4b4a-9999-c93ee6b1dbd3" d="M399.54,6.29h9.59A12.41,12.41,0,0,1,421.54,18.7h0a12.41,12.41,0,0,1-12.41,12.41h-9.59Z"/>
          <path class="f580693c-fb9c-4c12-9be5-eedcfd5649e2" d="M.12,17.05A12.81,12.81,0,0,0,0,18.7a12.66,12.66,0,0,0,.12,1.64Z"/>
          <rect class="f580693c-fb9c-4c12-9be5-eedcfd5649e2" x="17.66" y="6.29" width="4.34" height="24.83"/>
          <rect class="f580693c-fb9c-4c12-9be5-eedcfd5649e2" x="399.54" y="6.29" width="3.95" height="24.83"/>
          <rect class="ede02233-2fd1-4b4a-9999-c93ee6b1dbd3" x="53.51" y="28.71" width="304.02" height="128.1"/>
          <rect class="f580693c-fb9c-4c12-9be5-eedcfd5649e2" x="53.51" y="28.71" width="304.02" height="9.33"/>
          <g>
            <polygon class="b4531261-d1cd-4760-bc5a-275bc093d2db" points="193.91 153.8 170.34 153.8 170.34 321.96 193.91 332.34 193.91 153.8 193.91 153.8"/>
            <polygon class="b4531261-d1cd-4760-bc5a-275bc093d2db" points="263.93 153.8 263.93 312.89 287.51 302.22 287.51 153.8 263.93 153.8"/>
            <polygon class="b4531261-d1cd-4760-bc5a-275bc093d2db" points="217.14 153.8 217.14 334.09 240.71 323.41 240.71 153.8 217.14 153.8"/>
            <polygon class="b4531261-d1cd-4760-bc5a-275bc093d2db" points="123.54 153.8 123.54 301.35 147.11 311.73 147.11 153.8 123.54 153.8"/>
            <polygon class="b4531261-d1cd-4760-bc5a-275bc093d2db" points="100.31 153.8 76.74 153.8 76.74 280.74 100.31 291.12 100.31 153.8 100.31 153.8"/>
            <polygon class="b4531261-d1cd-4760-bc5a-275bc093d2db" points="334.3 153.8 310.73 153.8 310.73 153.8 310.73 291.7 334.3 281.03 334.3 153.8 334.3 153.8"/>
            <polygon class="ae466cca-67c9-4ced-8f23-c14e05bcc033" points="76.74 153.8 53.51 153.8 53.51 270.51 76.74 280.74 76.74 153.8"/>
            <polygon class="ae466cca-67c9-4ced-8f23-c14e05bcc033" points="100.31 153.8 100.31 291.12 123.54 301.35 123.54 153.8 100.31 153.8"/>
            <polygon class="ae466cca-67c9-4ced-8f23-c14e05bcc033" points="147.11 153.8 147.11 311.73 170.34 321.96 170.34 153.8 147.11 153.8"/>
            <polygon class="ae466cca-67c9-4ced-8f23-c14e05bcc033" points="217.14 153.8 193.91 153.8 193.91 332.34 207.64 338.39 217.14 334.09 217.14 153.8 217.14 153.8"/>
            <polygon class="ae466cca-67c9-4ced-8f23-c14e05bcc033" points="263.93 153.8 240.71 153.8 240.71 323.41 263.93 312.89 263.93 153.8 263.93 153.8"/>
            <polygon class="ae466cca-67c9-4ced-8f23-c14e05bcc033" points="287.51 153.8 287.51 153.8 287.51 302.22 310.73 291.7 310.73 153.8 287.51 153.8"/>
            <polygon class="ae466cca-67c9-4ced-8f23-c14e05bcc033" points="334.3 153.8 334.3 281.03 357.53 270.51 357.53 153.8 348.74 153.8 334.3 153.8"/>
          </g>
          <g>
            <g>
              <polygon class="b4531261-d1cd-4760-bc5a-275bc093d2db" points="84.15 51.2 87.46 57.9 94.84 58.97 89.5 64.18 90.76 71.54 84.15 68.06 77.55 71.54 78.81 64.18 73.46 58.97 80.85 57.9 84.15 51.2"/>
              <polygon class="b4531261-d1cd-4760-bc5a-275bc093d2db" points="132.93 51.2 136.23 57.9 143.62 58.97 138.28 64.18 139.54 71.54 132.93 68.06 126.33 71.54 127.59 64.18 122.24 58.97 129.63 57.9 132.93 51.2"/>
              <polygon class="b4531261-d1cd-4760-bc5a-275bc093d2db" points="181.71 51.2 185.01 57.9 192.4 58.97 187.05 64.18 188.31 71.54 181.71 68.06 175.1 71.54 176.36 64.18 171.02 58.97 178.41 57.9 181.71 51.2"/>
              <polygon class="b4531261-d1cd-4760-bc5a-275bc093d2db" points="230.49 51.2 233.79 57.9 241.18 58.97 235.83 64.18 237.09 71.54 230.49 68.06 223.88 71.54 225.14 64.18 219.8 58.97 227.18 57.9 230.49 51.2"/>
              <polygon class="b4531261-d1cd-4760-bc5a-275bc093d2db" points="279.26 51.2 282.57 57.9 289.95 58.97 284.61 64.18 285.87 71.54 279.26 68.06 272.66 71.54 273.92 64.18 268.57 58.97 275.96 57.9 279.26 51.2"/>
              <polygon class="b4531261-d1cd-4760-bc5a-275bc093d2db" points="328.04 51.2 331.35 57.9 338.73 58.97 333.39 64.18 334.65 71.54 328.04 68.06 321.44 71.54 322.7 64.18 317.35 58.97 324.74 57.9 328.04 51.2"/>
            </g>
            <g>
              <polygon class="b4531261-d1cd-4760-bc5a-275bc093d2db" points="84.15 92.92 87.46 99.61 94.84 100.68 89.5 105.89 90.76 113.25 84.15 109.78 77.55 113.25 78.81 105.89 73.46 100.68 80.85 99.61 84.15 92.92"/>
              <polygon class="b4531261-d1cd-4760-bc5a-275bc093d2db" points="132.93 92.92 136.23 99.61 143.62 100.68 138.28 105.89 139.54 113.25 132.93 109.78 126.33 113.25 127.59 105.89 122.24 100.68 129.63 99.61 132.93 92.92"/>
              <polygon class="b4531261-d1cd-4760-bc5a-275bc093d2db" points="181.71 92.92 185.01 99.61 192.4 100.68 187.05 105.89 188.31 113.25 181.71 109.78 175.1 113.25 176.36 105.89 171.02 100.68 178.41 99.61 181.71 92.92"/>
              <polygon class="b4531261-d1cd-4760-bc5a-275bc093d2db" points="230.49 92.92 233.79 99.61 241.18 100.68 235.83 105.89 237.09 113.25 230.49 109.78 223.88 113.25 225.14 105.89 219.8 100.68 227.18 99.61 230.49 92.92"/>
              <polygon class="b4531261-d1cd-4760-bc5a-275bc093d2db" points="279.26 92.92 282.57 99.61 289.95 100.68 284.61 105.89 285.87 113.25 279.26 109.78 272.66 113.25 273.92 105.89 268.57 100.68 275.96 99.61 279.26 92.92"/>
              <polygon class="b4531261-d1cd-4760-bc5a-275bc093d2db" points="328.04 92.92 331.35 99.61 338.73 100.68 333.39 105.89 334.65 113.25 328.04 109.78 321.44 113.25 322.7 105.89 317.35 100.68 324.74 99.61 328.04 92.92"/>
            </g>
            <g>
              <polygon class="b4531261-d1cd-4760-bc5a-275bc093d2db" points="108.51 72.86 111.81 79.55 119.2 80.62 113.86 85.83 115.12 93.19 108.51 89.72 101.9 93.19 103.17 85.83 97.82 80.62 105.21 79.55 108.51 72.86"/>
              <polygon class="b4531261-d1cd-4760-bc5a-275bc093d2db" points="157.29 72.86 160.59 79.55 167.98 80.62 162.63 85.83 163.89 93.19 157.29 89.72 150.68 93.19 151.94 85.83 146.6 80.62 153.98 79.55 157.29 72.86"/>
              <polygon class="b4531261-d1cd-4760-bc5a-275bc093d2db" points="206.06 72.86 209.37 79.55 216.75 80.62 211.41 85.83 212.67 93.19 206.06 89.72 199.46 93.19 200.72 85.83 195.38 80.62 202.76 79.55 206.06 72.86"/>
              <polygon class="b4531261-d1cd-4760-bc5a-275bc093d2db" points="254.84 72.86 258.14 79.55 265.53 80.62 260.19 85.83 261.45 93.19 254.84 89.72 248.24 93.19 249.5 85.83 244.15 80.62 251.54 79.55 254.84 72.86"/>
              <polygon class="b4531261-d1cd-4760-bc5a-275bc093d2db" points="303.62 72.86 306.92 79.55 314.31 80.62 308.96 85.83 310.23 93.19 303.62 89.72 297.01 93.19 298.27 85.83 292.93 80.62 300.32 79.55 303.62 72.86"/>
            </g>
            <g>
              <polygon class="b4531261-d1cd-4760-bc5a-275bc093d2db" points="108.51 114.26 111.81 120.95 119.2 122.03 113.86 127.24 115.12 134.59 108.51 131.12 101.9 134.59 103.17 127.24 97.82 122.03 105.21 120.95 108.51 114.26"/>
              <polygon class="b4531261-d1cd-4760-bc5a-275bc093d2db" points="157.29 114.26 160.59 120.95 167.98 122.03 162.63 127.24 163.89 134.59 157.29 131.12 150.68 134.59 151.94 127.24 146.6 122.03 153.98 120.95 157.29 114.26"/>
              <polygon class="b4531261-d1cd-4760-bc5a-275bc093d2db" points="206.06 114.26 209.37 120.95 216.75 122.03 211.41 127.24 212.67 134.59 206.06 131.12 199.46 134.59 200.72 127.24 195.38 122.03 202.76 120.95 206.06 114.26"/>
              <polygon class="b4531261-d1cd-4760-bc5a-275bc093d2db" points="254.84 114.26 258.14 120.95 265.53 122.03 260.19 127.24 261.45 134.59 254.84 131.12 248.24 134.59 249.5 127.24 244.15 122.03 251.54 120.95 254.84 114.26"/>
              <polygon class="b4531261-d1cd-4760-bc5a-275bc093d2db" points="303.62 114.26 306.92 120.95 314.31 122.03 308.96 127.24 310.23 134.59 303.62 131.12 297.01 134.59 298.27 127.24 292.93 122.03 300.32 120.95 303.62 114.26"/>
            </g>
          </g>
        </g>
      </g>
    </g>
  </g>
</svg>
