<svg xmlns="http://www.w3.org/2000/svg" viewBox="0 0 280.95 191.04">
  <defs>
    <style>
      .a6631d0b-9ad4-4df3-9227-15fa2f5f4264 {
        isolation: isolate;
      }

      .a9c5b28a-ad88-4d38-9cc1-54aecb189f90 {
        fill: #fff;
      }

      .fd9ec74d-5441-4c79-9661-1dd011e3d29c {
        fill: #d22027;
      }

      .aed0ad6e-20e4-4baa-9340-eb0d2ed2c2e7 {
        fill: #0e4c88;
      }

      .fdb35476-8c27-4ba2-8cd8-73f09d553a92 {
        fill: #929497;
        mix-blend-mode: multiply;
      }

      .b9d66d50-9c05-43be-af03-71a1eb4fa51d {
        fill: #a01826;
      }
    </style>
  </defs>
  <g class="a6631d0b-9ad4-4df3-9227-15fa2f5f4264">
    <g id="befb11dd-b94c-4db7-822e-803bb8321bbe" data-name="Layer 2">
      <g id="b0e086cf-c6e3-4430-a415-7ec38ad73acc" data-name="Layer 1">
        <g>
          <g>
            <g>
              <path class="a9c5b28a-ad88-4d38-9cc1-54aecb189f90" d="M13.07,50.21q-1.34,10.84-2.58,21.68-.62,5.39-1.21,10.76T8.12,93.58Q7.55,98.95,7,104.34C6.65,108,6.29,111.62,6,115.26S5.27,122.44,5,126s-.65,7.28-1,10.92-.61,7.18-.9,10.76-.58,7.28-.85,10.92-.54,7.17-.8,10.76-.51,7.27-.75,10.91Q.47,183.64.26,187C.17,188.33.08,189.69,0,191a901.69,901.69,0,0,1,117.85-26.9c.26-1.34.53-2.67.8-4q.66-3.28,1.33-6.57,1.09-5.37,2.22-10.73t2.23-10.56q1.16-5.35,2.32-10.71T129.09,111q1.2-5.34,2.42-10.7T134,89.79q1.26-5.36,2.53-10.69T139,68.58q1.3-5.34,2.63-10.68t2.65-10.51Q147,36.8,149.78,26.23A1040.87,1040.87,0,0,0,13.07,50.21Z"/>
              <g>
                <path class="fd9ec74d-5441-4c79-9661-1dd011e3d29c" d="M13.07,50.21a1040.87,1040.87,0,0,1,136.71-24q-1.38,5.25-2.75,10.5A1031.46,1031.46,0,0,0,11.76,61Q12.41,55.59,13.07,50.21Z"/>
                <path class="fd9ec74d-5441-4c79-9661-1dd011e3d29c" d="M10.49,71.89A1019.51,1019.51,0,0,1,144.3,47.39Q143,52.64,141.65,57.9A1010.11,1010.11,0,0,0,9.28,82.65Q9.88,77.28,10.49,71.89Z"/>
                <path class="fd9ec74d-5441-4c79-9661-1dd011e3d29c" d="M8.11,93.58A996.81,996.81,0,0,1,139,68.58q-1.28,5.25-2.54,10.52A987.1,987.1,0,0,0,7,104.34Q7.55,99,8.11,93.58Z"/>
                <path class="fd9ec74d-5441-4c79-9661-1dd011e3d29c" d="M6,115.26A976.92,976.92,0,0,1,134,89.79q-1.23,5.26-2.44,10.53A967.53,967.53,0,0,0,5,126C5.27,122.44,5.61,118.85,6,115.26Z"/>
                <path class="fd9ec74d-5441-4c79-9661-1dd011e3d29c" d="M4,136.94A957.5,957.5,0,0,1,129.09,111q-1.18,5.28-2.34,10.55A946.45,946.45,0,0,0,3.09,147.7Q3.53,142.33,4,136.94Z"/>
                <path class="fd9ec74d-5441-4c79-9661-1dd011e3d29c" d="M2.24,158.62a934.27,934.27,0,0,1,122.19-26.34q-1.12,5.28-2.23,10.56A923,923,0,0,0,1.44,169.38C1.7,165.79,2,162.21,2.24,158.62Z"/>
                <path class="fd9ec74d-5441-4c79-9661-1dd011e3d29c" d="M.69,180.29A913.13,913.13,0,0,1,120,153.57q-1.08,5.28-2.13,10.57A901.69,901.69,0,0,0,0,191Q.33,185.67.69,180.29Z"/>
              </g>
            </g>
            <path class="aed0ad6e-20e4-4baa-9340-eb0d2ed2c2e7" d="M122,29.6A1039.72,1039.72,0,0,0,13.07,50.21Q8.34,88.33,4.91,126.43a964.25,964.25,0,0,1,100.72-21.88Q113.15,67,122,29.6Z"/>
            <g>
              <g>
                <path class="a9c5b28a-ad88-4d38-9cc1-54aecb189f90" d="M31.61,67.59l1.57,4L38,71.26l-4,4.35.15,4.81-4-1.35-4.62,3.39c.48-1.74,1-3.47,1.46-5.21l-3.06-2.71,5-1.88Q30.2,70.13,31.61,67.59Z"/>
                <path class="a9c5b28a-ad88-4d38-9cc1-54aecb189f90" d="M64.11,60.65l1.44,4.1,4.81-.23q-2.1,2.1-4.17,4.22c0,1.6,0,3.21,0,4.82l-4-1.49c-1.58,1.08-3.17,2.16-4.74,3.25.54-1.73,1.08-3.44,1.63-5.16-1-.94-2-1.88-3-2.81l5-1.73C62.13,64,63.12,62.31,64.11,60.65Z"/>
                <path class="a9c5b28a-ad88-4d38-9cc1-54aecb189f90" d="M97,54.75c.44,1.38.87,2.77,1.31,4.15l4.83-.07q-2.18,2-4.32,4.08c0,1.6-.11,3.21-.16,4.81l-4-1.61c-1.63,1-3.25,2-4.87,3.09l1.81-5.11-2.9-2.9,5.11-1.56C94.85,58,95.9,56.38,97,54.75Z"/>
              </g>
              <g>
                <path class="a9c5b28a-ad88-4d38-9cc1-54aecb189f90" d="M27.84,96.68l1.56,4,4.64-.4q-1.93,2.17-3.86,4.36c.06,1.6.13,3.21.19,4.81l-3.91-1.34L22,111.57q.67-2.61,1.37-5.21l-3-2.7,4.8-1.91Z"/>
                <path class="a9c5b28a-ad88-4d38-9cc1-54aecb189f90" d="M59.39,89.6c.47,1.37,1,2.73,1.43,4.1l4.67-.25q-2,2.11-4,4.23l0,4.82L57.62,101,53,104.3c.51-1.72,1-3.45,1.54-5.17l-2.92-2.79,4.88-1.75C57.48,92.93,58.43,91.26,59.39,89.6Z"/>
                <path class="a9c5b28a-ad88-4d38-9cc1-54aecb189f90" d="M91.26,83.54c.44,1.38.88,2.76,1.31,4.14l4.69-.1-4.17,4.1L93,96.5l-3.85-1.59L84.42,98l1.71-5.11L83.3,90l5-1.6Q89.75,86,91.26,83.54Z"/>
              </g>
              <g>
                <path class="a9c5b28a-ad88-4d38-9cc1-54aecb189f90" d="M45.63,78.49l1.5,4.08,4.72-.32-4,4.29c0,1.61.07,3.22.1,4.82L44,90q-2.31,1.65-4.6,3.33c.49-1.73,1-3.46,1.5-5.19l-3-2.75,4.92-1.82C43.74,81.84,44.68,80.17,45.63,78.49Z"/>
                <path class="a9c5b28a-ad88-4d38-9cc1-54aecb189f90" d="M77.82,72c.46,1.37.92,2.74,1.37,4.12L83.94,76l-4.17,4.16-.06,4.82L75.8,83.39l-4.73,3.18q.83-2.56,1.68-5.14l-2.91-2.84,5-1.66Q76.32,74.46,77.82,72Z"/>
              </g>
              <g>
                <path class="a9c5b28a-ad88-4d38-9cc1-54aecb189f90" d="M50.43,47.17c.51,1.36,1,2.72,1.51,4.08L56.81,51q-2.1,2.13-4.18,4.27c0,1.61,0,3.21,0,4.82l-4-1.43-4.78,3.3q.8-2.58,1.6-5.18L42.39,54l5.09-1.8Q49,49.68,50.43,47.17Z"/>
                <path class="a9c5b28a-ad88-4d38-9cc1-54aecb189f90" d="M83.66,40.84,85,45l4.89-.14L85.6,49c0,1.6-.07,3.21-.1,4.82l-4-1.56c-1.64,1-3.28,2.09-4.9,3.15q.87-2.57,1.77-5.13l-3-2.86,5.16-1.63Q82.08,43.3,83.66,40.84Z"/>
              </g>
            </g>
          </g>
          <path class="fdb35476-8c27-4ba2-8cd8-73f09d553a92" d="M149.78,26.23Q147,36.81,144.3,47.39,143,52.64,141.65,57.9T139,68.58q-1.28,5.25-2.54,10.52T134,89.79q-1.23,5.26-2.43,10.54T129.09,111q-1.18,5.28-2.34,10.55t-2.32,10.71q-1.12,5.28-2.23,10.57T120,153.56q-1.08,5.3-2.13,10.58l-7.07,1.15q-5.91-5.68-12-11.26c.67-3.53,28.45-122.65,29.08-125.22C134.55,28,143.09,27,149.78,26.23Z"/>
          <path class="b9d66d50-9c05-43be-af03-71a1eb4fa51d" d="M105.26,152.27q6.38,5.88,12.59,11.87,1.32-6.66,2.69-13.32Q112.89,151.48,105.26,152.27Z"/>
          <g>
            <path class="a9c5b28a-ad88-4d38-9cc1-54aecb189f90" d="M226.16,134.94q.5,5.64,1,11.3a930,930,0,0,0-121.88,6q13-69.38,30.46-138.33A1062.46,1062.46,0,0,1,281,0q-5.06,5.6-10,11.24t-9.89,11.41q-4.8,5.61-9.51,11.25t-9.4,11.43q-4.54,5.61-9,11.26T224.21,68l-4.3,5.63c.21,1.81.41,3.62.62,5.43q.61,5.53,1.21,11.08t1.16,11q.58,5.63,1.13,11.24t1.08,11.15Z"/>
            <g>
              <path class="fd9ec74d-5441-4c79-9661-1dd011e3d29c" d="M281,0q-5.06,5.6-10,11.24A1051.21,1051.21,0,0,0,133.08,24.48q1.3-5.28,2.64-10.54A1062.46,1062.46,0,0,1,281,0Z"/>
              <path class="fd9ec74d-5441-4c79-9661-1dd011e3d29c" d="M261.05,22.65q-4.8,5.61-9.51,11.25A1032.85,1032.85,0,0,0,127.93,45.72q1.24-5.28,2.53-10.55A1041.29,1041.29,0,0,1,261.05,22.65Z"/>
              <path class="fd9ec74d-5441-4c79-9661-1dd011e3d29c" d="M242.14,45.33q-4.54,5.61-9,11.26A1011.86,1011.86,0,0,0,123,67q1.2-5.28,2.43-10.56A1022.39,1022.39,0,0,1,242.14,45.33Z"/>
              <path class="fd9ec74d-5441-4c79-9661-1dd011e3d29c" d="M219.91,73.65c.21,1.81.41,3.62.62,5.43a994.26,994.26,0,0,0-102.29,9.19Q119.4,83,120.57,77.7A1005.64,1005.64,0,0,1,224.21,68Z"/>
              <path class="fd9ec74d-5441-4c79-9661-1dd011e3d29c" d="M222.9,101.16a972.85,972.85,0,0,0-109.19,8.42q1.1-5.28,2.22-10.58a983.13,983.13,0,0,1,105.81-8.84Q222.34,95.67,222.9,101.16Z"/>
              <path class="fd9ec74d-5441-4c79-9661-1dd011e3d29c" d="M225.11,123.55a951.79,951.79,0,0,0-115.73,7.37q1.05-5.29,2.12-10.59A960.92,960.92,0,0,1,224,112.4Q224.59,118,225.11,123.55Z"/>
              <path class="fd9ec74d-5441-4c79-9661-1dd011e3d29c" d="M227.14,146.24a930,930,0,0,0-121.88,6q1-5.31,2-10.6a940.68,940.68,0,0,1,118.88-6.73Q226.66,140.58,227.14,146.24Z"/>
            </g>
          </g>
        </g>
      </g>
    </g>
  </g>
</svg>
