<svg xmlns="http://www.w3.org/2000/svg" viewBox="0 0 582.6 370.87">
  <defs>
    <style>
      .b8aec691-e05d-4dbb-a4bb-855a044cb7b1 {
        isolation: isolate;
      }

      .ac2ce3d0-7153-498d-ae2d-2f2b27d7c4dd {
        fill: #af1b26;
      }

      .abc1fcf9-22cf-45a6-9705-6b8ddcb6e199 {
        fill: #d22027;
      }

      .a2d6b399-b39a-46b9-8848-c8b5a16f08af {
        fill: #fff;
      }

      .add27e34-2c28-4e02-8087-9df7091faa1a {
        fill: #929497;
        mix-blend-mode: multiply;
      }

      .e5493d93-3986-444b-a7ff-8a444474194e {
        fill: #9b1828;
      }

      .eaa4b5da-6553-45d6-8c3e-e8b47b8d2a96 {
        fill: #0e4c88;
      }

      .a23ae557-2c5d-4ecd-a934-cece050748c2 {
        fill: none;
      }
    </style>
  </defs>
  <g class="b8aec691-e05d-4dbb-a4bb-855a044cb7b1">
    <g id="a9a09f3b-28ae-47a9-9110-ab4036b7984f" data-name="Layer 2">
      <g id="f6188aeb-f82b-48e9-8c11-d59c4ee8878a" data-name="Layer 1">
        <g>
          <polygon class="ac2ce3d0-7153-498d-ae2d-2f2b27d7c4dd" points="187.15 98.69 187.15 98.84 67.61 98.84 67.61 172.05 57.17 172.05 57.17 98.84 123.55 33.75 123.62 33.72 133.99 33.72 133.99 98.69 187.15 98.69"/>
          <g>
            <polygon class="abc1fcf9-22cf-45a6-9705-6b8ddcb6e199" points="187.15 112.63 187.15 132.54 20.93 132.54 31.48 112.63 187.15 112.63"/>
            <polygon class="abc1fcf9-22cf-45a6-9705-6b8ddcb6e199" points="187.15 73.1 187.15 93.02 28.4 93.02 18.87 73.1 187.15 73.1"/>
            <polygon class="abc1fcf9-22cf-45a6-9705-6b8ddcb6e199" points="10.53 152.17 187.15 152.17 187.15 172.05 0 172.05 10.53 152.17"/>
            <polygon class="a2d6b399-b39a-46b9-8848-c8b5a16f08af" points="187.15 53.48 187.15 73.1 18.87 73.1 9.46 53.48 187.15 53.48"/>
            <polygon class="a2d6b399-b39a-46b9-8848-c8b5a16f08af" points="187.15 93.02 187.15 112.63 31.48 112.63 34.8 106.36 28.4 93.02 187.15 93.02"/>
            <polygon class="a2d6b399-b39a-46b9-8848-c8b5a16f08af" points="187.15 132.54 187.15 152.17 10.53 152.17 20.93 132.54 187.15 132.54"/>
            <polygon class="abc1fcf9-22cf-45a6-9705-6b8ddcb6e199" points="9.46 53.48 187.15 53.48 187.15 33.72 0 33.72 9.46 53.48"/>
          </g>
          <polygon class="add27e34-2c28-4e02-8087-9df7091faa1a" points="187.15 33.72 187.15 172.05 57.17 172.05 57.17 92.69 119.8 33.75 187.15 33.72"/>
          <polygon class="e5493d93-3986-444b-a7ff-8a444474194e" points="67.61 98.84 133.99 98.84 133.99 33.75 67.61 98.84"/>
          <g>
            <polygon class="abc1fcf9-22cf-45a6-9705-6b8ddcb6e199" points="395.46 112.63 395.46 132.54 561.68 132.54 551.13 112.63 395.46 112.63"/>
            <polygon class="abc1fcf9-22cf-45a6-9705-6b8ddcb6e199" points="395.46 73.1 395.46 93.02 554.2 93.02 563.73 73.1 395.46 73.1"/>
            <polygon class="abc1fcf9-22cf-45a6-9705-6b8ddcb6e199" points="582.6 172.05 395.46 172.05 395.46 152.17 572.08 152.17 582.6 172.05"/>
            <polygon class="a2d6b399-b39a-46b9-8848-c8b5a16f08af" points="395.46 53.48 395.46 73.1 563.73 73.1 573.14 53.48 395.46 53.48"/>
            <polygon class="a2d6b399-b39a-46b9-8848-c8b5a16f08af" points="395.46 93.02 395.46 112.63 551.13 112.63 547.81 106.36 554.2 93.02 395.46 93.02"/>
            <polygon class="a2d6b399-b39a-46b9-8848-c8b5a16f08af" points="395.46 132.54 395.46 152.17 572.08 152.17 561.68 132.54 395.46 132.54"/>
            <polygon class="abc1fcf9-22cf-45a6-9705-6b8ddcb6e199" points="582.6 33.72 395.46 33.72 395.46 53.48 573.14 53.48 582.6 33.72"/>
          </g>
          <polygon class="add27e34-2c28-4e02-8087-9df7091faa1a" points="395.46 33.72 395.46 172.05 525.44 172.05 525.44 92.69 462.8 33.75 395.46 33.72"/>
          <rect class="abc1fcf9-22cf-45a6-9705-6b8ddcb6e199" x="133.99" y="39.53" width="314.62" height="19.62"/>
          <polygon class="eaa4b5da-6553-45d6-8c3e-e8b47b8d2a96" points="133.99 0 133.99 79.07 133.99 91.13 133.99 98.69 448.61 98.69 448.61 91.13 448.61 79.07 448.61 0 133.99 0"/>
          <polygon class="eaa4b5da-6553-45d6-8c3e-e8b47b8d2a96" points="133.99 237.2 448.61 237.2 448.61 256.82 292.56 370.87 133.99 256.82 133.99 237.2"/>
          <polygon class="a2d6b399-b39a-46b9-8848-c8b5a16f08af" points="179.88 30.26 185.36 41.35 197.6 43.13 188.74 51.77 190.83 63.96 179.88 58.2 168.93 63.96 171.03 51.77 162.17 43.13 174.41 41.35 179.88 30.26"/>
          <polygon class="a2d6b399-b39a-46b9-8848-c8b5a16f08af" points="252.49 30.26 257.96 41.35 270.2 43.13 261.34 51.77 263.43 63.96 252.49 58.2 241.54 63.96 243.63 51.77 234.77 43.13 247.01 41.35 252.49 30.26"/>
          <polygon class="a2d6b399-b39a-46b9-8848-c8b5a16f08af" points="325.09 30.26 330.56 41.35 342.8 43.13 333.94 51.77 336.04 63.96 325.09 58.2 314.14 63.96 316.23 51.77 307.37 43.13 319.61 41.35 325.09 30.26"/>
          <polygon class="a2d6b399-b39a-46b9-8848-c8b5a16f08af" points="295.26 255.92 306.02 277.72 330.07 281.21 312.67 298.18 316.78 322.14 295.26 310.83 273.75 322.14 277.86 298.18 260.45 281.21 284.5 277.72 295.26 255.92"/>
          <polygon class="a2d6b399-b39a-46b9-8848-c8b5a16f08af" points="397.69 30.26 403.16 41.35 415.4 43.13 406.55 51.77 408.64 63.96 397.69 58.2 386.74 63.96 388.83 51.77 379.97 43.13 392.21 41.35 397.69 30.26"/>
          <line class="a23ae557-2c5d-4ecd-a934-cece050748c2" x1="9.46" y1="53.48" y2="33.72"/>
          <line class="a23ae557-2c5d-4ecd-a934-cece050748c2" x1="10.53" y1="152.17" y2="172.05"/>
          <g>
            <rect class="abc1fcf9-22cf-45a6-9705-6b8ddcb6e199" x="67.61" y="177.75" width="187.15" height="19.91"/>
            <rect class="abc1fcf9-22cf-45a6-9705-6b8ddcb6e199" x="67.61" y="138.22" width="187.15" height="19.91"/>
            <rect class="abc1fcf9-22cf-45a6-9705-6b8ddcb6e199" x="67.61" y="217.29" width="187.15" height="19.89"/>
            <rect class="a2d6b399-b39a-46b9-8848-c8b5a16f08af" x="67.61" y="118.6" width="187.15" height="19.62"/>
            <polygon class="a2d6b399-b39a-46b9-8848-c8b5a16f08af" points="254.75 177.75 254.75 158.13 67.61 158.13 67.61 177.75 67.61 177.75 254.75 177.75 254.75 177.75"/>
            <polygon class="a2d6b399-b39a-46b9-8848-c8b5a16f08af" points="254.75 197.66 254.75 197.66 67.61 197.66 67.61 197.66 67.61 217.29 254.75 217.29 254.75 197.66"/>
            <rect class="abc1fcf9-22cf-45a6-9705-6b8ddcb6e199" x="67.61" y="98.84" width="187.15" height="19.76"/>
          </g>
          <polygon class="e5493d93-3986-444b-a7ff-8a444474194e" points="515 98.84 448.62 98.84 448.62 33.75 515 98.84"/>
          <line class="a23ae557-2c5d-4ecd-a934-cece050748c2" x1="582.6" y1="33.72" x2="573.14" y2="53.48"/>
          <line class="a23ae557-2c5d-4ecd-a934-cece050748c2" x1="582.6" y1="172.05" x2="572.08" y2="152.17"/>
          <g>
            <rect class="abc1fcf9-22cf-45a6-9705-6b8ddcb6e199" x="249.21" y="177.75" width="265.79" height="19.91"/>
            <rect class="abc1fcf9-22cf-45a6-9705-6b8ddcb6e199" x="249.21" y="138.22" width="265.79" height="19.91"/>
            <rect class="abc1fcf9-22cf-45a6-9705-6b8ddcb6e199" x="249.21" y="217.29" width="265.79" height="19.89"/>
            <rect class="a2d6b399-b39a-46b9-8848-c8b5a16f08af" x="249.21" y="118.6" width="265.79" height="19.62"/>
            <polygon class="a2d6b399-b39a-46b9-8848-c8b5a16f08af" points="249.21 177.75 249.21 158.13 515 158.13 515 177.75 515 177.75 249.21 177.75 249.21 177.75"/>
            <polygon class="a2d6b399-b39a-46b9-8848-c8b5a16f08af" points="249.21 197.66 249.21 197.66 515 197.66 515 197.66 515 217.29 249.21 217.29 249.21 197.66"/>
            <rect class="abc1fcf9-22cf-45a6-9705-6b8ddcb6e199" x="249.21" y="98.84" width="265.79" height="19.76"/>
          </g>
        </g>
      </g>
    </g>
  </g>
</svg>
